<mxfile host="app.diagrams.net" agent="Mozilla/5.0 (Windows NT 10.0; Win64; x64) AppleWebKit/537.36 (KHTML, like Gecko) Chrome/129.0.0.0 Safari/537.36" version="24.7.17">
  <diagram name="Flowchart" id="kQ6oNS4UjoyEqyZla-Cq">
    <mxGraphModel dx="1167" dy="619" grid="0" gridSize="10" guides="1" tooltips="1" connect="1" arrows="1" fold="1" page="1" pageScale="1" pageWidth="850" pageHeight="1100" math="0" shadow="0">
      <root>
        <mxCell id="0" />
        <mxCell id="1" parent="0" />
        <mxCell id="nimwSywUG4hKl815iZEZ-14" style="edgeStyle=orthogonalEdgeStyle;rounded=0;orthogonalLoop=1;jettySize=auto;html=1;exitX=0.5;exitY=1;exitDx=0;exitDy=0;" edge="1" parent="1" source="3VUZzvoL3X7t4dq8vf1d-1" target="3VUZzvoL3X7t4dq8vf1d-3">
          <mxGeometry relative="1" as="geometry" />
        </mxCell>
        <mxCell id="3VUZzvoL3X7t4dq8vf1d-1" value="Data Collection" style="rounded=1;whiteSpace=wrap;html=1;" parent="1" vertex="1">
          <mxGeometry x="466" y="5" width="140" height="50" as="geometry" />
        </mxCell>
        <mxCell id="nimwSywUG4hKl815iZEZ-22" style="edgeStyle=orthogonalEdgeStyle;rounded=0;orthogonalLoop=1;jettySize=auto;html=1;exitX=0.5;exitY=1;exitDx=0;exitDy=0;entryX=0.5;entryY=0;entryDx=0;entryDy=0;" edge="1" parent="1" source="3VUZzvoL3X7t4dq8vf1d-3" target="nimwSywUG4hKl815iZEZ-18">
          <mxGeometry relative="1" as="geometry" />
        </mxCell>
        <mxCell id="3VUZzvoL3X7t4dq8vf1d-3" value="Data Preprocessing" style="rounded=1;whiteSpace=wrap;html=1;" parent="1" vertex="1">
          <mxGeometry x="465.5" y="103" width="140" height="44" as="geometry" />
        </mxCell>
        <mxCell id="3VUZzvoL3X7t4dq8vf1d-7" value="Model Building" style="rounded=1;whiteSpace=wrap;html=1;" parent="1" vertex="1">
          <mxGeometry x="465.5" y="412" width="140" height="50" as="geometry" />
        </mxCell>
        <mxCell id="3VUZzvoL3X7t4dq8vf1d-10" value="" style="edgeStyle=orthogonalEdgeStyle;rounded=0;orthogonalLoop=1;exitX=0.5;exitY=1;exitDx=0;exitDy=0;entryX=0.5;entryY=0;entryDx=0;entryDy=0;" parent="1" source="3VUZzvoL3X7t4dq8vf1d-7" target="3VUZzvoL3X7t4dq8vf1d-13" edge="1">
          <mxGeometry relative="1" as="geometry">
            <mxPoint x="310" y="360" as="targetPoint" />
          </mxGeometry>
        </mxCell>
        <mxCell id="3VUZzvoL3X7t4dq8vf1d-41" style="edgeStyle=orthogonalEdgeStyle;rounded=0;orthogonalLoop=1;jettySize=auto;html=1;exitX=0.5;exitY=1;exitDx=0;exitDy=0;entryX=0.5;entryY=0;entryDx=0;entryDy=0;" parent="1" source="3VUZzvoL3X7t4dq8vf1d-13" target="3VUZzvoL3X7t4dq8vf1d-19" edge="1">
          <mxGeometry relative="1" as="geometry" />
        </mxCell>
        <mxCell id="3VUZzvoL3X7t4dq8vf1d-13" value="Bidirectional LSTM" style="rounded=1;whiteSpace=wrap;html=1;" parent="1" vertex="1">
          <mxGeometry x="209" y="524" width="160" height="50" as="geometry" />
        </mxCell>
        <mxCell id="3VUZzvoL3X7t4dq8vf1d-14" value="" style="edgeStyle=orthogonalEdgeStyle;rounded=0;orthogonalLoop=1;exitX=0.5;exitY=1;exitDx=0;exitDy=0;" parent="1" source="3VUZzvoL3X7t4dq8vf1d-7" target="3VUZzvoL3X7t4dq8vf1d-15" edge="1">
          <mxGeometry relative="1" as="geometry" />
        </mxCell>
        <mxCell id="3VUZzvoL3X7t4dq8vf1d-37" style="edgeStyle=orthogonalEdgeStyle;rounded=0;orthogonalLoop=1;jettySize=auto;html=1;exitX=0.5;exitY=1;exitDx=0;exitDy=0;entryX=0.5;entryY=0;entryDx=0;entryDy=0;" parent="1" source="3VUZzvoL3X7t4dq8vf1d-15" target="3VUZzvoL3X7t4dq8vf1d-19" edge="1">
          <mxGeometry relative="1" as="geometry" />
        </mxCell>
        <mxCell id="3VUZzvoL3X7t4dq8vf1d-15" value="Transformer Model" style="rounded=1;whiteSpace=wrap;html=1;" parent="1" vertex="1">
          <mxGeometry x="717" y="524" width="189" height="50" as="geometry" />
        </mxCell>
        <mxCell id="3VUZzvoL3X7t4dq8vf1d-16" value="" style="edgeStyle=orthogonalEdgeStyle;rounded=0;orthogonalLoop=1;exitX=0.5;exitY=1;exitDx=0;exitDy=0;" parent="1" source="3VUZzvoL3X7t4dq8vf1d-7" target="3VUZzvoL3X7t4dq8vf1d-17" edge="1">
          <mxGeometry relative="1" as="geometry" />
        </mxCell>
        <mxCell id="3VUZzvoL3X7t4dq8vf1d-38" style="edgeStyle=orthogonalEdgeStyle;rounded=0;orthogonalLoop=1;jettySize=auto;html=1;exitX=0.5;exitY=1;exitDx=0;exitDy=0;entryX=0.5;entryY=0;entryDx=0;entryDy=0;" parent="1" source="3VUZzvoL3X7t4dq8vf1d-17" target="3VUZzvoL3X7t4dq8vf1d-19" edge="1">
          <mxGeometry relative="1" as="geometry" />
        </mxCell>
        <mxCell id="3VUZzvoL3X7t4dq8vf1d-17" value="Bidirectional GRU" style="rounded=1;whiteSpace=wrap;html=1;" parent="1" vertex="1">
          <mxGeometry x="436" y="524" width="200" height="53" as="geometry" />
        </mxCell>
        <mxCell id="nimwSywUG4hKl815iZEZ-24" style="edgeStyle=orthogonalEdgeStyle;rounded=0;orthogonalLoop=1;jettySize=auto;html=1;exitX=0.5;exitY=1;exitDx=0;exitDy=0;entryX=0.5;entryY=0;entryDx=0;entryDy=0;" edge="1" parent="1" source="3VUZzvoL3X7t4dq8vf1d-19" target="3VUZzvoL3X7t4dq8vf1d-25">
          <mxGeometry relative="1" as="geometry" />
        </mxCell>
        <mxCell id="3VUZzvoL3X7t4dq8vf1d-19" value="Evaluation on Testing data" style="rounded=1;whiteSpace=wrap;html=1;" parent="1" vertex="1">
          <mxGeometry x="455.5" y="665" width="160" height="54" as="geometry" />
        </mxCell>
        <mxCell id="3VUZzvoL3X7t4dq8vf1d-21" value="Best Model Selection" style="rounded=1;whiteSpace=wrap;html=1;" parent="1" vertex="1">
          <mxGeometry x="436" y="867" width="199" height="48" as="geometry" />
        </mxCell>
        <mxCell id="nimwSywUG4hKl815iZEZ-25" style="edgeStyle=orthogonalEdgeStyle;rounded=0;orthogonalLoop=1;jettySize=auto;html=1;exitX=0.5;exitY=1;exitDx=0;exitDy=0;entryX=0.5;entryY=0;entryDx=0;entryDy=0;" edge="1" parent="1" source="3VUZzvoL3X7t4dq8vf1d-25" target="3VUZzvoL3X7t4dq8vf1d-21">
          <mxGeometry relative="1" as="geometry" />
        </mxCell>
        <mxCell id="3VUZzvoL3X7t4dq8vf1d-25" value="Visualization" style="rounded=1;whiteSpace=wrap;html=1;" parent="1" vertex="1">
          <mxGeometry x="446" y="768" width="179" height="50" as="geometry" />
        </mxCell>
        <mxCell id="nimwSywUG4hKl815iZEZ-21" style="edgeStyle=orthogonalEdgeStyle;rounded=0;orthogonalLoop=1;jettySize=auto;html=1;exitX=0.5;exitY=1;exitDx=0;exitDy=0;entryX=0.5;entryY=0;entryDx=0;entryDy=0;" edge="1" parent="1" source="nimwSywUG4hKl815iZEZ-13" target="3VUZzvoL3X7t4dq8vf1d-7">
          <mxGeometry relative="1" as="geometry" />
        </mxCell>
        <mxCell id="nimwSywUG4hKl815iZEZ-13" value="Dividing Dataset&lt;div&gt;(test and train data)&lt;/div&gt;" style="rounded=1;whiteSpace=wrap;html=1;" vertex="1" parent="1">
          <mxGeometry x="442" y="290" width="186" height="55" as="geometry" />
        </mxCell>
        <mxCell id="nimwSywUG4hKl815iZEZ-20" style="edgeStyle=orthogonalEdgeStyle;rounded=0;orthogonalLoop=1;jettySize=auto;html=1;exitX=0.5;exitY=1;exitDx=0;exitDy=0;" edge="1" parent="1" source="nimwSywUG4hKl815iZEZ-18" target="nimwSywUG4hKl815iZEZ-13">
          <mxGeometry relative="1" as="geometry" />
        </mxCell>
        <mxCell id="nimwSywUG4hKl815iZEZ-18" value="Identifying Features and Target" style="rounded=1;whiteSpace=wrap;html=1;" vertex="1" parent="1">
          <mxGeometry x="437.5" y="195" width="195" height="47" as="geometry" />
        </mxCell>
      </root>
    </mxGraphModel>
  </diagram>
</mxfile>
